<?xml version="1.0" encoding="UTF-8"?>
<svg width="34px" height="34px" viewBox="0 0 34 34" version="1.1" xmlns="http://www.w3.org/2000/svg" xmlns:xlink="http://www.w3.org/1999/xlink">
    <title>icon_camera</title>
    <g id="安卓版本" stroke="none" stroke-width="1" fill="none" fill-rule="evenodd">
        <g id="1-1首页-单个雷达区" transform="translate(-331.000000, -342.000000)">
            <g id="编组-2" transform="translate(331.000000, 342.000000)">
                <circle id="椭圆形" fill="#FFFFFF" cx="17" cy="17" r="17"></circle>
                <g id="shiping-xue" transform="translate(9.000000, 7.000000)" fill="#000000" fill-rule="nonzero">
                    <path d="M8.23916185,16.7154986 C12.708815,16.7154986 16.3446532,12.9654986 16.3446532,8.35856214 C16.3446532,3.75162572 12.7073699,0.00162572254 8.23916185,0.00162572254 C3.77095376,0.00162572254 0.136560694,3.75018064 0.136560694,8.35856214 C0.136560694,12.9669436 3.77095376,16.7154986 8.23916185,16.7154986 Z M8.23916185,1.44671243 C11.9125723,1.44671243 14.8995665,4.5478685 14.8995665,8.35856214 C14.8995665,12.1707009 11.9125723,15.2704118 8.23916185,15.2704118 C4.56719653,15.2704118 1.58164687,12.1692558 1.58164687,8.35856214 C1.58020231,4.5478685 4.56719653,1.44671243 8.23916185,1.44671243 Z" id="形状"></path>
                    <path d="M15.0888728,15.1533598 C14.7415572,15.0049103 14.3384477,15.1478066 14.1621726,15.4818612 C13.9858974,15.8159159 14.0954485,16.2293347 14.4140173,16.4322616 C14.908237,16.6938223 15.0296243,16.9004697 15.0354046,16.9409321 C14.992052,17.4120303 12.6264451,18.5175217 8.23916185,18.5175217 C3.91546243,18.5175217 1.48627168,17.3990246 1.44580925,16.9409321 C1.44869942,16.9033598 1.5599711,16.7053829 2.03684971,16.4467124 C2.37548076,16.2508876 2.49677715,15.8211372 2.31050462,15.4771591 C2.1242321,15.1331811 1.69804409,14.9999069 1.34898844,15.1764812 C0.23482659,15.7790824 0.000722543353,16.4683887 0.000722543353,16.9409321 C0.000722543353,19.0175217 4.27095376,19.9626084 8.23916185,19.9626084 C12.208815,19.9626084 16.4804913,19.0175217 16.4804913,16.9409321 C16.4804913,16.4611633 16.2391618,15.7617413 15.0888728,15.1533598 Z M8.24060694,12.2790826 C9.64127393,12.2795987 10.935819,11.5328288 11.6365997,10.3200738 C12.3373803,9.10731871 12.3379311,7.61282481 11.6380448,6.39955348 C10.9381584,5.18628215 9.6441641,4.43855816 8.24349711,4.43804164 C6.07825357,4.43724381 4.32232989,6.19187352 4.32153152,8.35711705 C4.32073369,10.5223606 6.0753634,12.2782843 8.24060694,12.2790826 Z M6.88656069,5.15191474 C7.77165287,5.15191474 8.48916185,5.86942372 8.48916185,6.7545159 C8.48916185,7.63960807 7.77165287,8.35711705 6.88656069,8.35711705 C6.00146852,8.35711705 5.28395954,7.63960807 5.28395954,6.7545159 C5.28395954,5.86942372 6.00146852,5.15191474 6.88656069,5.15191474 L6.88656069,5.15191474 Z" id="形状"></path>
                </g>
            </g>
        </g>
    </g>
</svg>